<?xml version="1.0" encoding="UTF-8" standalone="no"?><svg xmlns="http://www.w3.org/2000/svg" xmlns:xlink="http://www.w3.org/1999/xlink" contentScriptType="application/ecmascript" contentStyleType="text/css" height="462px" preserveAspectRatio="none" style="width:1046px;height:462px;" version="1.1" viewBox="0 0 1046 462" width="1046px" zoomAndPan="magnify"><defs/><g><ellipse cx="16" cy="44" fill="#0B5C92" rx="10" ry="10" style="stroke: none; stroke-width: 1.0;"/><rect fill="#E0E59A" height="72.3828" rx="12.5" ry="12.5" style="stroke: #0B5C92; stroke-width: 1.5;" width="110" x="46" y="8"/><text fill="#000000" font-family="sans-serif" font-size="15" lengthAdjust="spacingAndGlyphs" textLength="49" x="76.5" y="31.9233">Create</text><text fill="#000000" font-family="sans-serif" font-size="15" lengthAdjust="spacingAndGlyphs" textLength="90" x="56" y="49.3843">the project's</text><text fill="#000000" font-family="sans-serif" font-size="15" lengthAdjust="spacingAndGlyphs" textLength="55" x="73.5" y="66.8452">backlog</text><rect fill="#E0E59A" height="72.3828" rx="12.5" ry="12.5" style="stroke: #0B5C92; stroke-width: 1.5;" width="99" x="176.5" y="8"/><text fill="#000000" font-family="sans-serif" font-size="15" lengthAdjust="spacingAndGlyphs" textLength="49" x="201.5" y="31.9233">Create</text><text fill="#000000" font-family="sans-serif" font-size="15" lengthAdjust="spacingAndGlyphs" textLength="79" x="186.5" y="49.3843">the project</text><text fill="#000000" font-family="sans-serif" font-size="15" lengthAdjust="spacingAndGlyphs" textLength="64" x="194" y="66.8452">in GitLab</text><rect fill="#E0E59A" height="72.3828" rx="12.5" ry="12.5" style="stroke: #0B5C92; stroke-width: 1.5;" width="161" x="295.5" y="8"/><text fill="#000000" font-family="sans-serif" font-size="15" lengthAdjust="spacingAndGlyphs" textLength="127" x="312.5" y="31.9233">Setup the project</text><text fill="#000000" font-family="sans-serif" font-size="15" lengthAdjust="spacingAndGlyphs" textLength="141" x="305.5" y="49.3843">in the development</text><text fill="#000000" font-family="sans-serif" font-size="15" lengthAdjust="spacingAndGlyphs" textLength="58" x="347" y="66.8452">Vagrant</text><rect fill="#E0E59A" height="54.9219" rx="12.5" ry="12.5" style="stroke: #0B5C92; stroke-width: 1.5;" width="126" x="477" y="16.5"/><text fill="#000000" font-family="sans-serif" font-size="15" lengthAdjust="spacingAndGlyphs" textLength="49" x="515.5" y="40.4233">Author</text><text fill="#000000" font-family="sans-serif" font-size="15" lengthAdjust="spacingAndGlyphs" textLength="106" x="487" y="57.8843">the application</text><rect fill="#E0E59A" height="54.9219" rx="12.5" ry="12.5" style="stroke: #0B5C92; stroke-width: 1.5;" width="126" x="623" y="16.5"/><text fill="#000000" font-family="sans-serif" font-size="15" lengthAdjust="spacingAndGlyphs" textLength="95" x="638.5" y="40.4233">Build and run</text><text fill="#000000" font-family="sans-serif" font-size="15" lengthAdjust="spacingAndGlyphs" textLength="106" x="633" y="57.8843">the application</text><rect fill="#E0E59A" height="54.9219" rx="12.5" ry="12.5" style="stroke: #0B5C92; stroke-width: 1.5;" width="169" x="769.5" y="16.5"/><text fill="#000000" font-family="sans-serif" font-size="15" lengthAdjust="spacingAndGlyphs" textLength="149" x="779.5" y="40.4233">Run gometalinter.v2</text><text fill="#000000" font-family="sans-serif" font-size="15" lengthAdjust="spacingAndGlyphs" textLength="100" x="804" y="57.8843">on application</text><rect fill="#E0E59A" height="54.9219" rx="12.5" ry="12.5" style="stroke: #0B5C92; stroke-width: 1.5;" width="126" x="791" y="128.5"/><text fill="#000000" font-family="sans-serif" font-size="15" lengthAdjust="spacingAndGlyphs" textLength="22" x="843" y="152.4233">Fix</text><text fill="#000000" font-family="sans-serif" font-size="15" lengthAdjust="spacingAndGlyphs" textLength="106" x="801" y="169.8843">the application</text><rect fill="#E0E59A" height="54.9219" rx="12.5" ry="12.5" style="stroke: #0B5C92; stroke-width: 1.5;" width="89" x="681.5" y="128.5"/><text fill="#000000" font-family="sans-serif" font-size="15" lengthAdjust="spacingAndGlyphs" textLength="49" x="701.5" y="152.4233">Author</text><text fill="#000000" font-family="sans-serif" font-size="15" lengthAdjust="spacingAndGlyphs" textLength="69" x="691.5" y="169.8843">unit tests</text><rect fill="#E0E59A" height="72.3828" rx="12.5" ry="12.5" style="stroke: #0B5C92; stroke-width: 1.5;" width="122" x="539" y="120"/><text fill="#000000" font-family="sans-serif" font-size="15" lengthAdjust="spacingAndGlyphs" textLength="59" x="570.5" y="143.9233">Perform</text><text fill="#000000" font-family="sans-serif" font-size="15" lengthAdjust="spacingAndGlyphs" textLength="102" x="549" y="161.3843">static analysis</text><text fill="#000000" font-family="sans-serif" font-size="15" lengthAdjust="spacingAndGlyphs" textLength="73" x="563.5" y="178.8452">on the CLI</text><rect fill="#E0E59A" height="54.9219" rx="12.5" ry="12.5" style="stroke: #0B5C92; stroke-width: 1.5;" width="108" x="411" y="128.5"/><text fill="#000000" font-family="sans-serif" font-size="15" lengthAdjust="spacingAndGlyphs" textLength="39" x="445.5" y="152.4233">Write</text><text fill="#000000" font-family="sans-serif" font-size="15" lengthAdjust="spacingAndGlyphs" textLength="88" x="421" y="169.8843">the Makefile</text><rect fill="#E0E59A" height="54.9219" rx="12.5" ry="12.5" style="stroke: #0B5C92; stroke-width: 1.5;" width="126" x="265" y="128.5"/><text fill="#000000" font-family="sans-serif" font-size="15" lengthAdjust="spacingAndGlyphs" textLength="71" x="292.5" y="152.4233">Dockerize</text><text fill="#000000" font-family="sans-serif" font-size="15" lengthAdjust="spacingAndGlyphs" textLength="106" x="275" y="169.8843">the application</text><rect fill="#E0E59A" height="54.9219" rx="12.5" ry="12.5" style="stroke: #0B5C92; stroke-width: 1.5;" width="144" x="101" y="128.5"/><text fill="#000000" font-family="sans-serif" font-size="15" lengthAdjust="spacingAndGlyphs" textLength="57" x="144.5" y="152.4233">Run the</text><text fill="#000000" font-family="sans-serif" font-size="15" lengthAdjust="spacingAndGlyphs" textLength="124" x="111" y="169.8843">Docker container</text><rect fill="#E0E59A" height="72.3828" rx="12.5" ry="12.5" style="stroke: #0B5C92; stroke-width: 1.5;" width="157" x="94.5" y="241"/><text fill="#000000" font-family="sans-serif" font-size="15" lengthAdjust="spacingAndGlyphs" textLength="137" x="104.5" y="264.9233">Push the container</text><text fill="#000000" font-family="sans-serif" font-size="15" lengthAdjust="spacingAndGlyphs" textLength="94" x="126" y="282.3843">image to the</text><text fill="#000000" font-family="sans-serif" font-size="15" lengthAdjust="spacingAndGlyphs" textLength="110" x="118" y="299.8452">private registry</text><rect fill="#E0E59A" height="72.3828" rx="12.5" ry="12.5" style="stroke: #0B5C92; stroke-width: 1.5;" width="142" x="272" y="241"/><text fill="#000000" font-family="sans-serif" font-size="15" lengthAdjust="spacingAndGlyphs" textLength="118" x="284" y="264.9233">Configure Drone</text><text fill="#000000" font-family="sans-serif" font-size="15" lengthAdjust="spacingAndGlyphs" textLength="80" x="303" y="282.3843">to execute</text><text fill="#000000" font-family="sans-serif" font-size="15" lengthAdjust="spacingAndGlyphs" textLength="122" x="282" y="299.8452">the CICD pipeline</text><rect fill="#FFFFFF" height="89.8438" rx="12.5" ry="12.5" style="stroke: #0B5C92; stroke-width: 1.5;" width="131" x="434.5" y="232"/><text fill="#000000" font-family="sans-serif" font-size="15" lengthAdjust="spacingAndGlyphs" textLength="28" x="486" y="255.9233">Add</text><text fill="#000000" font-family="sans-serif" font-size="15" lengthAdjust="spacingAndGlyphs" textLength="105" x="447.5" y="273.3843">Static Analysis</text><text fill="#000000" font-family="sans-serif" font-size="15" lengthAdjust="spacingAndGlyphs" textLength="94" x="453" y="290.8452">(SonarQube)</text><text fill="#000000" font-family="sans-serif" font-size="15" lengthAdjust="spacingAndGlyphs" textLength="111" x="444.5" y="308.3062">step to pipeline</text><rect fill="#E0E59A" height="54.9219" rx="12.5" ry="12.5" style="stroke: #0B5C92; stroke-width: 1.5;" width="123" x="585.5" y="249.5"/><text fill="#000000" font-family="sans-serif" font-size="15" lengthAdjust="spacingAndGlyphs" textLength="103" x="595.5" y="273.4233">Add build step</text><text fill="#000000" font-family="sans-serif" font-size="15" lengthAdjust="spacingAndGlyphs" textLength="74" x="610" y="290.8843">to pipeline</text><rect fill="#E0E59A" height="72.3828" rx="12.5" ry="12.5" style="stroke: #0B5C92; stroke-width: 1.5;" width="131" x="728.5" y="241"/><text fill="#000000" font-family="sans-serif" font-size="15" lengthAdjust="spacingAndGlyphs" textLength="101" x="743.5" y="264.9233">Add container</text><text fill="#000000" font-family="sans-serif" font-size="15" lengthAdjust="spacingAndGlyphs" textLength="100" x="744" y="282.3843">image publish</text><text fill="#000000" font-family="sans-serif" font-size="15" lengthAdjust="spacingAndGlyphs" textLength="111" x="738.5" y="299.8452">step to pipeline</text><rect fill="#E0E59A" height="72.3828" rx="12.5" ry="12.5" style="stroke: #0B5C92; stroke-width: 1.5;" width="121" x="879.5" y="241"/><text fill="#000000" font-family="sans-serif" font-size="15" lengthAdjust="spacingAndGlyphs" textLength="101" x="889.5" y="264.9233">Add container</text><text fill="#000000" font-family="sans-serif" font-size="15" lengthAdjust="spacingAndGlyphs" textLength="84" x="898" y="282.3843">deploy step</text><text fill="#000000" font-family="sans-serif" font-size="15" lengthAdjust="spacingAndGlyphs" textLength="74" x="903" y="299.8452">to pipeline</text><rect fill="#E0E59A" height="89.8438" rx="12.5" ry="12.5" style="stroke: #0B5C92; stroke-width: 1.5;" width="191" x="844.5" y="362"/><text fill="#000000" font-family="sans-serif" font-size="15" lengthAdjust="spacingAndGlyphs" textLength="28" x="926" y="385.9233">Add</text><text fill="#000000" font-family="sans-serif" font-size="15" lengthAdjust="spacingAndGlyphs" textLength="171" x="854.5" y="403.3843">complaince automation</text><text fill="#000000" font-family="sans-serif" font-size="15" lengthAdjust="spacingAndGlyphs" textLength="94" x="893" y="420.8452">test (InSpec)</text><text fill="#000000" font-family="sans-serif" font-size="15" lengthAdjust="spacingAndGlyphs" textLength="111" x="884.5" y="438.3062">step to pipeline</text><rect fill="#E0E59A" height="89.8438" rx="12.5" ry="12.5" style="stroke: #0B5C92; stroke-width: 1.5;" width="134" x="690" y="362"/><text fill="#000000" font-family="sans-serif" font-size="15" lengthAdjust="spacingAndGlyphs" textLength="114" x="700" y="385.9233">Add automated</text><text fill="#000000" font-family="sans-serif" font-size="15" lengthAdjust="spacingAndGlyphs" textLength="96" x="709" y="403.3843">funtional test</text><text fill="#000000" font-family="sans-serif" font-size="15" lengthAdjust="spacingAndGlyphs" textLength="79" x="717.5" y="420.8452">(Selenium)</text><text fill="#000000" font-family="sans-serif" font-size="15" lengthAdjust="spacingAndGlyphs" textLength="74" x="720" y="438.3062">to pipeline</text><rect fill="#E0E59A" height="72.3828" rx="12.5" ry="12.5" style="stroke: #0B5C92; stroke-width: 1.5;" width="130" x="540" y="371"/><text fill="#000000" font-family="sans-serif" font-size="15" lengthAdjust="spacingAndGlyphs" textLength="110" x="550" y="394.9233">Add DAST step</text><text fill="#000000" font-family="sans-serif" font-size="15" lengthAdjust="spacingAndGlyphs" textLength="103" x="553.5" y="412.3843">(OWASP ZAP)</text><text fill="#000000" font-family="sans-serif" font-size="15" lengthAdjust="spacingAndGlyphs" textLength="103" x="553.5" y="429.8452">to the pipeline</text><ellipse cx="510" cy="407" fill="none" rx="10" ry="10" style="stroke: #0B5C92; stroke-width: 1.0;"/><ellipse cx="510.5" cy="407.5" fill="#0B5C92" rx="6" ry="6" style="stroke: none; stroke-width: 1.0;"/><!--MD5=[80782f68dee61c014b8ba0067c202b95]
link start to Create\nthe project's\nbacklog--><path d="M26.293,44 C31.0792,44 35.8654,44 40.6516,44 " fill="none" id="start-&gt;Create\nthe project's\nbacklog" style="stroke: #0B5C92; stroke-width: 1.0;"/><polygon fill="#0B5C92" points="45.8452,44,36.8452,40,40.8452,44,36.8452,48,45.8452,44" style="stroke: #0B5C92; stroke-width: 1.0;"/><!--MD5=[5c8361bf7628c6ebc01569d56f95febe]
link Create\nthe project's\nbacklog to Create\nthe project\nin GitLab--><path d="M156.1758,44 C161.2217,44 166.2676,44 171.3135,44 " fill="none" id="Create\nthe project's\nbacklog-&gt;Create\nthe project\nin GitLab" style="stroke: #0B5C92; stroke-width: 1.0;"/><polygon fill="#0B5C92" points="176.3593,44,167.3593,40,171.3593,44,167.3593,48,176.3593,44" style="stroke: #0B5C92; stroke-width: 1.0;"/><!--MD5=[51a5abd90c660d5f7307d23bb6a04d8c]
link Create\nthe project\nin GitLab to Setup the project\nin the development\nVagrant--><path d="M275.5117,44 C280.3162,44 285.1206,44 289.925,44 " fill="none" id="Create\nthe project\nin GitLab-&gt;Setup the project\nin the development\nVagrant" style="stroke: #0B5C92; stroke-width: 1.0;"/><polygon fill="#0B5C92" points="295.1383,44,286.1383,40,290.1383,44,286.1383,48,295.1383,44" style="stroke: #0B5C92; stroke-width: 1.0;"/><!--MD5=[a87287873cb729a8f24e7e5b73c28bb5]
link Setup the project\nin the development\nVagrant to Author\nthe application--><path d="M456.7188,44 C461.7612,44 466.8036,44 471.846,44 " fill="none" id="Setup the project\nin the development\nVagrant-&gt;Author\nthe application" style="stroke: #0B5C92; stroke-width: 1.0;"/><polygon fill="#0B5C92" points="476.8884,44,467.8884,40,471.8884,44,467.8884,48,476.8884,44" style="stroke: #0B5C92; stroke-width: 1.0;"/><!--MD5=[98701219a39d510d46c4102052c9928e]
link Author\nthe application to Build and run\nthe application--><path d="M603.0195,44 C607.8597,44 612.6999,44 617.5401,44 " fill="none" id="Author\nthe application-&gt;Build and run\nthe application" style="stroke: #0B5C92; stroke-width: 1.0;"/><polygon fill="#0B5C92" points="622.7922,44,613.7922,40,617.7922,44,613.7922,48,622.7922,44" style="stroke: #0B5C92; stroke-width: 1.0;"/><!--MD5=[43c3a662e44708d9f3c41792c7676ebb]
link Build and run\nthe application to Run gometalinter.v2\non application--><path d="M749.3281,44 C754.3368,44 759.3456,44 764.3543,44 " fill="none" id="Build and run\nthe application-&gt;Run gometalinter.v2\non application" style="stroke: #0B5C92; stroke-width: 1.0;"/><polygon fill="#0B5C92" points="769.363,44,760.363,40,764.363,44,760.363,48,769.363,44" style="stroke: #0B5C92; stroke-width: 1.0;"/><!--MD5=[1bb1165397f5f62de8efd0d08733c92c]
link Run gometalinter.v2\non application to Fix\nthe application--><path d="M854,71.6854 C854,87.1664 854,106.565 854,122.8513 " fill="none" id="Run gometalinter.v2\non application-&gt;Fix\nthe application" style="stroke: #0B5C92; stroke-width: 1.0;"/><polygon fill="#0B5C92" points="854,128.2449,858,119.2449,854,123.2449,850,119.2449,854,128.2449" style="stroke: #0B5C92; stroke-width: 1.0;"/><!--MD5=[8cbf92ca4632568d53b9f0ff9ceefa98]
reverse link Author\nunit tests to Fix\nthe application--><path d="M775.7905,156 C780.8311,156 785.8716,156 790.9121,156 " fill="none" id="Author\nunit tests&lt;-Fix\nthe application" style="stroke: #0B5C92; stroke-width: 1.0;"/><polygon fill="#0B5C92" points="770.75,156,779.75,160,775.75,156,779.75,152,770.75,156" style="stroke: #0B5C92; stroke-width: 1.0;"/><!--MD5=[4a551758df4a0fbb8ff17105eddf2943]
reverse link Perform\nstatic analysis\non the CLI to Author\nunit tests--><path d="M666.1069,156 C671.1826,156 676.2583,156 681.334,156 " fill="none" id="Perform\nstatic analysis\non the CLI&lt;-Author\nunit tests" style="stroke: #0B5C92; stroke-width: 1.0;"/><polygon fill="#0B5C92" points="661.0313,156,670.0313,160,666.0313,156,670.0313,152,661.0313,156" style="stroke: #0B5C92; stroke-width: 1.0;"/><!--MD5=[baf3dfc282b147a2b917bbe6b84ac308]
reverse link Write\nthe Makefile to Perform\nstatic analysis\non the CLI--><path d="M524.3441,156 C529.2205,156 534.0969,156 538.9734,156 " fill="none" id="Write\nthe Makefile&lt;-Perform\nstatic analysis\non the CLI" style="stroke: #0B5C92; stroke-width: 1.0;"/><polygon fill="#0B5C92" points="519.0527,156,528.0527,160,524.0527,156,528.0527,152,519.0527,156" style="stroke: #0B5C92; stroke-width: 1.0;"/><!--MD5=[c83218ab105969639b0e274abad7d7ef]
reverse link Dockerize\nthe application to Write\nthe Makefile--><path d="M396.3592,156 C401.1612,156 405.9632,156 410.7653,156 " fill="none" id="Dockerize\nthe application&lt;-Write\nthe Makefile" style="stroke: #0B5C92; stroke-width: 1.0;"/><polygon fill="#0B5C92" points="391.1484,156,400.1484,160,396.1484,156,400.1484,152,391.1484,156" style="stroke: #0B5C92; stroke-width: 1.0;"/><!--MD5=[e1d4fb112c067b3de3d59221ad80fae8]
reverse link Run the\nDocker container to Dockerize\nthe application--><path d="M250.3009,156 C255.1393,156 259.9777,156 264.816,156 " fill="none" id="Run the\nDocker container&lt;-Dockerize\nthe application" style="stroke: #0B5C92; stroke-width: 1.0;"/><polygon fill="#0B5C92" points="245.0508,156,254.0508,160,250.0508,156,254.0508,152,245.0508,156" style="stroke: #0B5C92; stroke-width: 1.0;"/><!--MD5=[5d7565e17bc7ba9720348c9f6ee564b9]
link Run the\nDocker container to Push the container\nimage to the\nprivate registry--><path d="M173,183.7598 C173,199.0617 173,218.3623 173,235.4283 " fill="none" id="Run the\nDocker container-&gt;Push the container\nimage to the\nprivate registry" style="stroke: #0B5C92; stroke-width: 1.0;"/><polygon fill="#0B5C92" points="173,240.646,177,231.646,173,235.646,169,231.646,173,240.646" style="stroke: #0B5C92; stroke-width: 1.0;"/><!--MD5=[fe9b58ea30f9cdbd35cb2957cbc6eca4]
link Push the container\nimage to the\nprivate registry to Configure Drone\nto execute\nthe CICD pipeline--><path d="M251.6914,277 C256.5808,277 261.4702,277 266.3596,277 " fill="none" id="Push the container\nimage to the\nprivate registry-&gt;Configure Drone\nto execute\nthe CICD pipeline" style="stroke: #0B5C92; stroke-width: 1.0;"/><polygon fill="#0B5C92" points="271.6652,277,262.6652,273,266.6652,277,262.6652,281,271.6652,277" style="stroke: #0B5C92; stroke-width: 1.0;"/><!--MD5=[33a3a464684e6f931a5dfa82b2ec37ef]
link Configure Drone\nto execute\nthe CICD pipeline to Add\nStatic Analysis\n(SonarQube)\nstep to pipeline--><path d="M414.1406,277 C419.1714,277 424.2023,277 429.2331,277 " fill="none" id="Configure Drone\nto execute\nthe CICD pipeline-&gt;Add\nStatic Analysis\n(SonarQube)\nstep to pipeline" style="stroke: #0B5C92; stroke-width: 1.0;"/><polygon fill="#0B5C92" points="434.2639,277,425.2639,273,429.2639,277,425.2639,281,434.2639,277" style="stroke: #0B5C92; stroke-width: 1.0;"/><!--MD5=[42d3abd21ac5f77ce141dd2b36dcd7a9]
link Add\nStatic Analysis\n(SonarQube)\nstep to pipeline to Add build step\nto pipeline--><path d="M565.748,277 C570.5651,277 575.3822,277 580.1992,277 " fill="none" id="Add\nStatic Analysis\n(SonarQube)\nstep to pipeline-&gt;Add build step\nto pipeline" style="stroke: #0B5C92; stroke-width: 1.0;"/><polygon fill="#0B5C92" points="585.4263,277,576.4263,273,580.4263,277,576.4263,281,585.4263,277" style="stroke: #0B5C92; stroke-width: 1.0;"/><!--MD5=[e4bed80dc9a379bd9372ffabd03663c7]
link Add build step\nto pipeline to Add container\nimage publish\nstep to pipeline--><path d="M708.7285,277 C713.5393,277 718.35,277 723.1608,277 " fill="none" id="Add build step\nto pipeline-&gt;Add container\nimage publish\nstep to pipeline" style="stroke: #0B5C92; stroke-width: 1.0;"/><polygon fill="#0B5C92" points="728.3809,277,719.3809,273,723.3809,277,719.3809,281,728.3809,277" style="stroke: #0B5C92; stroke-width: 1.0;"/><!--MD5=[0c9d8925a0132769a788e9c6408b5ffe]
link Add container\nimage publish\nstep to pipeline to Add container\ndeploy step\nto pipeline--><path d="M859.5859,277 C864.4302,277 869.2745,277 874.1188,277 " fill="none" id="Add container\nimage publish\nstep to pipeline-&gt;Add container\ndeploy step\nto pipeline" style="stroke: #0B5C92; stroke-width: 1.0;"/><polygon fill="#0B5C92" points="879.3753,277,870.3753,273,874.3753,277,870.3753,281,879.3753,277" style="stroke: #0B5C92; stroke-width: 1.0;"/><!--MD5=[590674832f98d280af7e6dba2f7fc780]
link Add container\ndeploy step\nto pipeline to Add\ncomplaince automation\ntest (InSpec)\nstep to pipeline--><path d="M940,313.2122 C940,326.5946 940,342.017 940,356.4404 " fill="none" id="Add container\ndeploy step\nto pipeline-&gt;Add\ncomplaince automation\ntest (InSpec)\nstep to pipeline" style="stroke: #0B5C92; stroke-width: 1.0;"/><polygon fill="#0B5C92" points="940,361.7034,944,352.7034,940,356.7034,936,352.7034,940,361.7034" style="stroke: #0B5C92; stroke-width: 1.0;"/><!--MD5=[462b7eb59479198d40a611b9f92e9d91]
reverse link Add automated\nfuntional test\n(Selenium)\nto pipeline to Add\ncomplaince automation\ntest (InSpec)\nstep to pipeline--><path d="M829.4823,407 C834.3546,407 839.2269,407 844.0992,407 " fill="none" id="Add automated\nfuntional test\n(Selenium)\nto pipeline&lt;-Add\ncomplaince automation\ntest (InSpec)\nstep to pipeline" style="stroke: #0B5C92; stroke-width: 1.0;"/><polygon fill="#0B5C92" points="824.1953,407,833.1953,411,829.1953,407,833.1953,403,824.1953,407" style="stroke: #0B5C92; stroke-width: 1.0;"/><!--MD5=[b51088669dd74ace10d2f0dbaf10e083]
reverse link Add DAST step\n(OWASP ZAP)\nto the pipeline to Add automated\nfuntional test\n(Selenium)\nto pipeline--><path d="M675.2504,407 C680.0746,407 684.8988,407 689.723,407 " fill="none" id="Add DAST step\n(OWASP ZAP)\nto the pipeline&lt;-Add automated\nfuntional test\n(Selenium)\nto pipeline" style="stroke: #0B5C92; stroke-width: 1.0;"/><polygon fill="#0B5C92" points="670.0156,407,679.0156,411,675.0156,407,679.0156,403,670.0156,407" style="stroke: #0B5C92; stroke-width: 1.0;"/><!--MD5=[0f06422f897c19fecd296f8c159dd93f]
reverse link end to Add DAST step\n(OWASP ZAP)\nto the pipeline--><path d="M525.3101,407 C530.1857,407 535.0612,407 539.9368,407 " fill="none" id="end&lt;-Add DAST step\n(OWASP ZAP)\nto the pipeline" style="stroke: #0B5C92; stroke-width: 1.0;"/><polygon fill="#0B5C92" points="520.0195,407,529.0195,411,525.0195,407,529.0195,403,520.0195,407" style="stroke: #0B5C92; stroke-width: 1.0;"/><!--MD5=[c119464a3216131f7dd7981b7f082d8f]
@startuml
skinparam shadowing false

skinparam title {
  FontStyle "Thin"
  FontSize 30
}

skinparam activity {
  BorderColor #0B5C92
  BackgroundColor #e0e59a
  FontStyle "Thin"
  FontSize 15
}

skinparam activityDiamond {
  BorderColor #0B5C92
  BackgroundColor #e0e59a
  FontStyle "Thin"
  FontSize 15
}

skinparam activityStart {
  Color #0B5C92
}

skinparam activityEnd {
  Color #0B5C92
}

skinparam arrow {
  Color #0B5C92
}

skinparam note {
  BorderColor #0B5C92
  BackgroundColor #FEFECE
  FontStyle "Thin"
  FontSize 15
}

(*) -right->”Create\nthe project's\nbacklog”
-right->"Create\nthe project\nin GitLab"
-right->"Setup the project\nin the development\nVagrant"
-right->"Author\nthe application"
-right->"Build and run\nthe application"
-right->"Run gometalinter.v2\non application"
-down->"Fix\nthe application"
-left->"Author\nunit tests"
-left->"Perform\nstatic analysis\non the CLI"
-left->"Write\nthe Makefile"
-left->"Dockerize\nthe application"
-left->"Run the\nDocker container"
-down->"Push the container\nimage to the\nprivate registry"
-right->"Configure Drone\nto execute\nthe CICD pipeline"
-right->"Add\nStatic Analysis\n(SonarQube)\nstep to pipeline" #FFFFFF
-right->"Add build step\nto pipeline" 
-right->"Add container\nimage publish\nstep to pipeline"
-right->"Add container\ndeploy step\nto pipeline"
-down->"Add\ncomplaince automation\ntest (InSpec)\nstep to pipeline"
-left->"Add automated\nfuntional test\n(Selenium)\nto pipeline"
-left->"Add DAST step\n(OWASP ZAP)\nto the pipeline"
-left-> (*)
@enduml

PlantUML version 1.2020.06(Sun Apr 05 12:38:32 GMT 2020)
(GPL source distribution)
Java Runtime: OpenJDK Runtime Environment
JVM: OpenJDK 64-Bit Server VM
Java Version: 14-ea+33
Operating System: Linux
Default Encoding: UTF-8
Language: en
Country: US
--></g></svg>